<svg id="Layer_1" data-name="Layer 1" xmlns="http://www.w3.org/2000/svg" viewBox="0 0 200 200"><defs><style>.cls-1{fill:#fff;}.cls-2,.cls-3,.cls-4,.cls-5{fill:none;stroke:#000;stroke-width:0.86px;}.cls-2,.cls-4{stroke-linecap:round;}.cls-2,.cls-3{stroke-miterlimit:10;}.cls-4,.cls-5{stroke-linejoin:round;}</style></defs><path d="M109.86,36a1.17,1.17,0,0,0,2.34.09,1.15,1.15,0,0,0,0-.32c0-.89-.05-1.73-.05-2.52a3,3,0,0,1-.87,5.94,1.93,1.93,0,0,1-.34,0,3.13,3.13,0,0,1-3-3.25,3,3,0,0,1,1.72-2.52h0a24.28,24.28,0,0,0,.15,2.58Z"/><path d="M121.05,53.26a4.31,4.31,0,0,1,1.25,1.56l6.76,0a10,10,0,0,0,2.56-.36l7.16-2,0-.09L128.1,42.2l.07-.08,3-3.29.06-.07S152.33,50,152.14,54.23c-.21,4.61-18.38,13.66-18.38,13.66s.47,39.35.52,40.23h-.36l-38.19,0h0l-.07,0c.13-6.27,1.52-27.32,2.63-40.5a183.91,183.91,0,0,1-17.57,6C79.74,74,73,66.8,68,59.11L68,59a1.63,1.63,0,0,0,1.2-1.58V53.94h.08a3.74,3.74,0,0,0,.84-.45l0,0C72.48,56.26,81,64,82,63.65c3-1.13,9.17-4.55,16-7.88,2.11-1,7.35-.9,11.31-.83a3,3,0,0,1,1.06-1.69l.19-.08A25,25,0,0,1,120.59,53,1.76,1.76,0,0,1,121.05,53.26Z"/><path d="M117.68,35.09a.42.42,0,0,1-.82.17.42.42,0,0,1,.82-.17Z"/><path d="M117.76,181.5l.19-.06Z"/><path d="M88.47,159.14l.16,0Z"/><path d="M127.3,179.87l.25,0Z"/><path d="M114.78,182.2l.2,0Z"/><path d="M112.42,182.76l.23-.1Z"/><path d="M126.56,179.78l.25,0Z"/><path d="M132.72,179.2l.37-.11Z"/><path d="M74.71,161.3l-.35.09Z"/><path d="M111.45,183.38l.19-.16Z"/><path d="M124.23,179.21l-.12,0Z"/><path d="M84.78,159.17l.73.08Z"/><path d="M89.78,158.89l.13,0Z"/><path d="M83.08,158.82l.24.06Z"/><path d="M122.76,34a.43.43,0,0,1-.32.5.42.42,0,1,1,.32-.5Z"/><path d="M111.64,183.22l.2-.14Z"/><path d="M84.53,159.13l.25,0Z"/><path d="M83.81,159l.48.1Z"/><path d="M132.22,179.34l.31-.08Z"/><path d="M111.84,183.08a2.61,2.61,0,0,1,.28-.17A2.61,2.61,0,0,0,111.84,183.08Z"/><path d="M83.32,158.88l.49.11Z"/><path d="M88.63,159.12l.16,0Z"/><path d="M124.36,179.29l0-.1h0l0,.1c.41.12.82.22,1.22.31C125.18,179.52,124.77,179.41,124.36,179.29Z"/><path d="M82.6,158.68l.48.14Z"/><path d="M112.81,182.6l.25-.09Z"/><path d="M89.12,159l-.29.05Z"/><path d="M117,181.72l.19-.05Z"/><path d="M90.84,158.61l.36-.11Z"/><path d="M126.81,179.82l.49.05Z"/><path d="M87.55,159.25l-.44,0Z"/><path d="M132.12,179.37a14,14,0,0,1-4.57.52A14,14,0,0,0,132.12,179.37Z"/><rect class="cls-1" x="68.68" y="167.77" width="23.15" height="0.01"/><path d="M133.09,179.09l.19-.07Z"/><path d="M84.29,159.09l.24,0Z"/><path d="M87,159.29a13.7,13.7,0,0,1-1.44,0A13.7,13.7,0,0,0,87,159.29Z"/><path d="M88.16,159.19l-.6.06Z"/><path d="M124.24,179.2h0Z"/><path d="M117.17,181.67l.2-.06Z"/><path d="M116.37,181.88l-.56.13Z"/><path d="M125.58,179.6a8.42,8.42,0,0,0,1,.18A8.42,8.42,0,0,1,125.58,179.6Z"/><path d="M73.24,175.07a.5.5,0,0,1-.22-.32.53.53,0,0,1,.41-.62.51.51,0,0,1,.62.4.52.52,0,0,1-.81.54Z"/><path d="M60.93,175.22a.53.53,0,0,1-.41.09.54.54,0,0,1-.41-.63.54.54,0,0,1,.63-.41.53.53,0,0,1,.41.63A.52.52,0,0,1,60.93,175.22Z"/><path d="M87.17,177.31a.76.76,0,0,0-.56-.24.77.77,0,0,0-.69,1.11.75.75,0,0,0,.69.44.77.77,0,0,0,.69-.44.77.77,0,0,0,.08-.34A.78.78,0,0,0,87.17,177.31Z"/><polyline class="cls-2" points="94.66 188.22 94.66 167.77 91.83 167.77 68.68 167.77 54.59 167.77 54.59 188.22 94.66 188.22 94.66 188.22"/><path class="cls-2" d="M110.78,116.71c.1,2.83.28,5.65.56,8.45,1.87,19.3,7.69,38,13,54l0,.1v0"/><path class="cls-3" d="M133.92,108.42c.05,4,.09,8.21.11,12.51.11,25.91-.38,55-.34,58v.22"/><path class="cls-3" d="M133.67,178.9l-.39.12-.19.07-.37.11-.19.06-.31.08-.1,0a14,14,0,0,1-4.57.52l-.25,0-.49-.05-.25,0a8.42,8.42,0,0,1-1-.18c-.4-.08-.81-.19-1.22-.31l-.12,0"/><path class="cls-3" d="M82.52,158.66l-.08,0"/><path class="cls-3" d="M91.87,158.28l-.1,0h0l-.57.19-.36.11-.83.22-.1,0-.13,0-.66.14-.29.05h0l-.16,0-.16,0-.31.05-.6.06h0l-.44,0H87a13.7,13.7,0,0,1-1.44,0l-.73-.08-.25,0-.24,0-.48-.1-.49-.11-.24-.06-.48-.14h0l-.07,0"/><path class="cls-2" d="M111.13,125.18c-6.87-.13-14.76,2.23-19.23,6-2.33,2-1.36,20.52-.13,27.09a2.56,2.56,0,0,0,0,.27"/><path class="cls-3" d="M95.76,108.16h0l-.07,0c-6,2.5-18.39,8.71-19.66,12.26-2.7,7.61,1.5,25.42,6.6,38.22a.87.87,0,0,0,.07.17"/><path class="cls-3" d="M69.28,53.94a3.74,3.74,0,0,0,.84-.45c2.49-1.84,2-6.72.61-8.12a5.13,5.13,0,0,0-1.54-1,3.56,3.56,0,0,0-2.19-.3.86.86,0,0,0-.56.51,1.27,1.27,0,0,0,.45,1.17,11,11,0,0,0,2.31,1.73l.25.14"/><path class="cls-3" d="M62.5,48.36c-.77-1.17-.58-2.07.06-2.62a3.4,3.4,0,0,1,4.09.14c.46.37,1.07,1.34-.35,1.72"/><path class="cls-3" d="M62.52,45.69c-1.17-2.17.59-3.08,2.39-2.74a4,4,0,0,1,2,1"/><path class="cls-3" d="M64.82,53.59a3.89,3.89,0,0,1-2.33-2,3.08,3.08,0,0,1,.15-3.07,2.73,2.73,0,0,1,.38-.46,2.67,2.67,0,0,1,3.16-.43,2.05,2.05,0,0,1,.5.39c.61.66.1,1.81-.53,1.5A2.31,2.31,0,0,0,65,49.34a.54.54,0,0,0-.53.51c0,.15.3.32.4.37"/><path class="cls-3" d="M69.19,44.45V41.56a1.63,1.63,0,0,0-1.64-1.64H66.6A1.64,1.64,0,0,0,65,41.56v1.13"/><path class="cls-3" d="M69.2,47.45v10A1.63,1.63,0,0,1,68,59a1.61,1.61,0,0,1-.44.06h-.94A1.64,1.64,0,0,1,65,57.45V49.29"/><polyline class="cls-3" points="67.89 33.49 67.89 33.76 67.9 39.73"/><line class="cls-3" x1="66.27" y1="39.73" x2="66.27" y2="34.02"/><path class="cls-3" d="M56.66,22.94l0-.3c0-.13,0-.25,0-.38.73-5.74,5.61-9.84,10.91-9.17s9,5.87,8.27,11.6a10.42,10.42,0,0,1-8,9.07,9.29,9.29,0,0,1-2.89.1,9.88,9.88,0,0,1-8.33-9.34c0-.08,0-.16,0-.23"/><path class="cls-3" d="M56.66,22.94l0-.3c0-.13,0-.25,0-.38.73-5.74,5.61-9.84,10.91-9.17s9,5.87,8.27,11.6a10.42,10.42,0,0,1-8,9.07,9.29,9.29,0,0,1-2.89.1,9.88,9.88,0,0,1-8.33-9.34c0-.08,0-.16,0-.23"/><path class="cls-3" d="M54.51,24.75c0-.09,0-.19,0-.28"/><path class="cls-3" d="M54.51,24.75c0-.09,0-.19,0-.28"/><path class="cls-2" d="M77.07,16.05a13.91,13.91,0,0,1,1.69,8.89,14.24,14.24,0,0,1-.93,3.49"/><path class="cls-2" d="M79.29,13.78A19.08,19.08,0,0,1,81.61,26a19.69,19.69,0,0,1-1.28,4.78"/><path class="cls-2" d="M81.84,11.72a23.83,23.83,0,0,1,2.89,15.19,24.59,24.59,0,0,1-1.59,5.95"/><path class="cls-2" d="M53.92,22.53A13.1,13.1,0,0,1,54.29,20a13.94,13.94,0,0,1,1.26-3.38"/><path class="cls-2" d="M55.11,29A13.73,13.73,0,0,1,54,24.57"/><path class="cls-2" d="M51,22.57a17.3,17.3,0,0,1,.52-3.87,19.65,19.65,0,0,1,1.73-4.64"/><path class="cls-2" d="M52.68,31.06a18.79,18.79,0,0,1-1.63-6.49"/><path class="cls-2" d="M49.94,32.86a23.84,23.84,0,0,1-1.41-15.4,24.89,24.89,0,0,1,2.16-5.77"/><path class="cls-3" d="M57.93,22.64h6.92a.88.88,0,0,1,.81.94,1,1,0,0,1-.24.66.75.75,0,0,1-.57.28H51.59a.88.88,0,0,1-.81-.94,1,1,0,0,1,.24-.66.75.75,0,0,1,.57-.28Z"/><path class="cls-2" d="M126.15,114.59c.78,4.15,4.13,6.06,7.88,6.34a14.77,14.77,0,0,0,3.38-.16"/><path class="cls-4" d="M124.4,179.18h-.17l-.12,0h0l-.15,0-.19.06a.7.7,0,0,0-.19.06l-.11,0-.24.08-.6.23-.16.06-.39.15c-1.15.45-2.57,1-4.11,1.5l-.19.06-.39.11-.2.06-.19.05-.61.16-.56.13-.83.16-.2,0-.6.08a7,7,0,0,0-1.12.23l-.25.09-.16.06-.23.1-.3.15a2.61,2.61,0,0,0-.28.17l-.2.14-.19.16a3.05,3.05,0,0,0-.86,3l8.22,0,14.86.07"/><polygon class="cls-4" points="133.68 186.41 133.69 186.41 133.69 188.31 110.54 188.31 110.54 186.41 118.81 186.41 133.68 186.41"/><polyline class="cls-3" points="133.68 178.84 133.68 178.9 133.68 186.39"/><path class="cls-4" d="M82.54,158.66h-.08l-.15,0-.15,0-.19.06-.3.09-.71.25-.24.09h0l-1.48.58h0l-.32.12-.53.21-.33.12a32.34,32.34,0,0,1-3.32,1.05l-.35.09-.82.18-.34.06-.32.05-.36,0-.2,0c-2.1.24-4.08,1.41-3.6,4.08l8.23,0,14.86.07"/><polygon class="cls-4" points="91.83 167.77 91.83 167.78 68.68 167.78 68.68 167.77 68.68 165.88 76.95 165.88 91.82 165.88 91.82 165.88 91.83 165.88 91.83 167.77"/><polyline class="cls-3" points="91.82 158.68 91.82 165.88 91.82 166.29"/><path class="cls-2" d="M115.05,23.89a9.75,9.75,0,0,1,4.86,2.73,26.2,26.2,0,0,1,4.62,5.66q.21.36.36.66l.09.19c.59,1.43.36,3.77-.18,6-.12.51-.26,1-.41,1.52-.74,2.44-1.74,4.53-2.32,4.92a3.45,3.45,0,0,1-2.19.49,6.59,6.59,0,0,1-4.4-2.27"/><path class="cls-3" d="M110.47,53.06c.31-4.79.51-8.71.79-13.87v0"/><path class="cls-3" d="M119.85,46l0,.16c.38,2.27.35,5.07,1.17,7.15v0"/><path class="cls-3" d="M112.36,28.37c3.68-.92,7-1.57,7.48-1.68"/><path class="cls-3" d="M109.65,31.83c-1.87.91-7,3.11-7.39,1.08-.24-1.32,3.49-2.73,7.58-3.88"/><path class="cls-2" d="M120.42,33.14a3.28,3.28,0,0,1,2.07-.77"/><path class="cls-2" d="M117.61,33.79a2.73,2.73,0,0,0-2.34.77"/><path class="cls-2" d="M120.33,33.25c-.22,1.32.76,3.12,1.21,4.35.3.83.84,2.46-.73,2.22"/><path class="cls-4" d="M116.7,42a1.93,1.93,0,0,1,2.18.33"/><path class="cls-3" d="M109.64,33.42a3,3,0,0,0-1.72,2.52,3.13,3.13,0,0,0,3,3.25,1.93,1.93,0,0,0,.34,0,3,3,0,0,0,.87-5.94l-.06,0"/><path class="cls-3" d="M124.76,39.18h0l.34-.06a3.13,3.13,0,0,0,2.45-3.67A3.07,3.07,0,0,0,125,33.11"/><path class="cls-4" d="M109.83,36a24.28,24.28,0,0,1-.15-2.58c0-.51,0-1.05,0-1.58,0-.93.11-1.88.23-2.8.3-2.39.89-4.56,1.81-5.46a3.11,3.11,0,0,1,4.52.24h0"/><path class="cls-4" d="M112.18,35.79v0c0-.89-.05-1.73-.05-2.52a38,38,0,0,1,.22-4.88c.35-2.72,1.15-4.18,2.7-4.5a3.89,3.89,0,0,1,1.19,0"/><path class="cls-3" d="M112.18,35.77a1.17,1.17,0,0,0-2.32.18v0a1.17,1.17,0,0,0,2.34.09A1.15,1.15,0,0,0,112.18,35.77Z"/><path class="cls-5" d="M95.66,108.21h0c.13-6.27,1.52-27.32,2.63-40.5a183.91,183.91,0,0,1-17.57,6C79.74,74,73,66.8,68,59.11"/><path class="cls-4" d="M70.15,53.53C72.48,56.26,81,64,82,63.65c3-1.13,9.17-4.55,16-7.88,2.11-1,7.35-.9,11.31-.83a3,3,0,0,1,1.06-1.69l.19-.08A25,25,0,0,1,120.59,53a1.76,1.76,0,0,1,.46.22,4.31,4.31,0,0,1,1.25,1.56l6.76,0a10,10,0,0,0,2.56-.36l7.16-2,2.11-.58"/><path class="cls-4" d="M95.73,108.17l38.19,0h.36c-.05-.88-.52-40.23-.52-40.23s18.17-9,18.38-13.66c.19-4.24-20.88-15.47-20.88-15.47l-.06.07-3,3.29-.07.08,10.65,10.16"/><path class="cls-4" d="M131.1,38.73a9.33,9.33,0,0,1-1.1-.8c-.1-1.1.05-2.71-.38-3.29-.58-.79-1.63-2.32-5.08-2.37"/><path class="cls-4" d="M128,42a1.48,1.48,0,0,0-.72-.49c-.64,0-2.08-.07-2.74-.78"/><circle class="cls-2" cx="60.98" cy="175.22" r="3.89"/><path class="cls-2" d="M77,175.22a3.89,3.89,0,1,1-3.89-3.88A3.89,3.89,0,0,1,77,175.22Z"/><path class="cls-2" d="M61,184.31a1.94,1.94,0,1,1-1.93-1.93A1.93,1.93,0,0,1,61,184.31Z"/><path class="cls-2" d="M66.69,184.31a1.94,1.94,0,1,1-1.93-1.93A1.93,1.93,0,0,1,66.69,184.31Z"/><path class="cls-2" d="M72.27,184.31a1.94,1.94,0,1,1-1.94-1.93A1.94,1.94,0,0,1,72.27,184.31Z"/><line class="cls-2" x1="59.11" y1="182.54" x2="59.11" y2="183.9"/><line class="cls-2" x1="63.53" y1="183.26" x2="64.6" y2="184.09"/><line class="cls-2" x1="70.53" y1="184.56" x2="71.6" y2="185.39"/><polyline class="cls-3" points="86.03 178 82.08 178 81.13 178 81.13 172.45 92.06 172.45 92.06 178 91.1 178 87.16 178"/><path class="cls-3" d="M82.07,178h0a4.52,4.52,0,0,1,9,0h0"/><polyline class="cls-2" points="86.84 177.48 87.05 177.3 88.76 175.8"/><polyline class="cls-2" points="73.38 174.89 73.24 175.07 72.08 176.61"/><polyline class="cls-2" points="60.79 175.04 60.93 175.22 62.09 176.75"/><rect class="cls-3" x="88.57" y="182.23" width="3.38" height="4.17"/><line class="cls-3" x1="88.72" y1="184.23" x2="91.91" y2="184.23"/><path d="M91.82,165.88H77l-8.23,0c-.48-2.67,1.5-3.84,3.6-4.08l.2,0,.36,0,.32-.05.34-.06.82-.18.35-.09A32.34,32.34,0,0,0,78,160.25l.33-.12.53-.21.32-.12h0l1.48-.58h0l.24-.09.71-.25.3-.09.19-.06.15,0,.15,0h.07l.07,0h0l.48.14.24.06.49.11.48.1.24,0,.25,0,.73.08a13.7,13.7,0,0,0,1.44,0h.16l.44,0h0l.6-.06.31-.05.16,0,.16,0h0l.29-.05.66-.14.13,0,.1,0,.83-.22.36-.11.57-.19h0a2.56,2.56,0,0,0,0,.27v7.3Z"/><path d="M133.68,186.41H118.81l-8.22,0a3.05,3.05,0,0,1,.86-3l.19-.16.2-.14a2.61,2.61,0,0,1,.28-.17l.3-.15.23-.1.16-.06.25-.09a7,7,0,0,1,1.12-.23l.6-.08.2,0,.83-.16.56-.13.61-.16.19-.05.2-.06.39-.11.19-.06c1.54-.48,3-1.05,4.11-1.5l.39-.15.16-.06.6-.23.24-.08.11,0a.7.7,0,0,1,.19-.06l.19-.06.15,0h0l.12,0h.1l0,.1c.41.12.82.23,1.22.31a8.42,8.42,0,0,0,1,.18l.25,0,.49.05.25,0a14,14,0,0,0,4.57-.52l.1,0,.31-.08.19-.06.37-.11.19-.07.39-.12h0v7.51Z"/></svg>