<svg viewBox="0 0 190 190" fill="none" xmlns="http://www.w3.org/2000/svg">
  <path
    d="M137.548 65.935L137.479 65.9052C137.439 65.8904 137.399 65.8755 137.365 65.8408C137.308 65.7797 137.266 65.7064 137.242 65.6265C137.218 65.5466 137.212 65.4623 137.226 65.38L141.056 41.9614L159.019 59.9292L140.338 67.8774C140.286 67.8984 140.23 67.9085 140.174 67.9071H140.1C140.075 67.8923 140.05 67.8725 140.001 67.8229C139.306 67.0488 138.474 66.4089 137.548 65.935V65.935ZM163.603 64.5078L182.809 83.7144C186.798 87.7083 188.795 89.7004 189.524 92.0095C189.633 92.3514 189.722 92.6933 189.791 93.0452L143.891 73.6057C143.866 73.5955 143.841 73.5856 143.816 73.576C143.633 73.5016 143.42 73.4174 143.42 73.2291C143.42 73.0408 143.638 72.9516 143.821 72.8773L143.881 72.8525L163.603 64.5078ZM189.008 99.2095C188.017 101.073 186.085 103.005 182.814 106.281L161.16 127.93L133.153 122.098L133.004 122.068C132.756 122.028 132.494 121.984 132.494 121.761C132.387 120.606 132.044 119.484 131.486 118.467C130.927 117.45 130.166 116.559 129.248 115.849C129.134 115.735 129.164 115.557 129.198 115.393C129.198 115.369 129.198 115.344 129.208 115.324L134.476 82.986L134.496 82.877C134.525 82.6292 134.57 82.3418 134.793 82.3418C135.922 82.2014 137.011 81.8377 137.998 81.272C138.985 80.7062 139.849 79.9497 140.541 79.0466C140.586 78.997 140.615 78.9425 140.675 78.9128C140.833 78.8384 141.022 78.9128 141.185 78.9821L189.003 99.2095H189.008ZM156.18 132.91L120.571 168.519L126.666 131.057L126.676 131.007C126.681 130.958 126.691 130.908 126.706 130.864C126.755 130.745 126.884 130.695 127.008 130.646L127.068 130.621C128.402 130.051 129.582 129.173 130.512 128.059C130.63 127.92 130.774 127.786 130.957 127.762C131.005 127.754 131.054 127.754 131.101 127.762L156.175 132.915L156.18 132.91ZM113.034 176.056L109.021 180.069L64.6463 115.938C64.6302 115.915 64.6137 115.892 64.5967 115.869C64.5273 115.775 64.453 115.681 64.4679 115.572C64.4679 115.492 64.5224 115.423 64.5769 115.364L64.6264 115.299C64.7602 115.101 64.8742 114.903 64.9981 114.69L65.0972 114.516L65.112 114.501C65.1814 114.382 65.2458 114.269 65.3648 114.204C65.4688 114.155 65.6125 114.174 65.7265 114.199L114.888 124.338C115.025 124.359 115.155 124.415 115.264 124.501C115.329 124.566 115.343 124.635 115.358 124.714C115.701 126.012 116.339 127.212 117.223 128.222C118.107 129.232 119.212 130.024 120.452 130.537C120.591 130.606 120.532 130.76 120.467 130.923C120.435 130.995 120.41 131.069 120.393 131.146C119.773 134.912 114.461 167.31 113.034 176.056ZM104.65 184.435C101.692 187.363 99.9475 188.914 97.9753 189.539C96.0307 190.154 93.9438 190.154 91.9993 189.539C89.6901 188.805 87.6931 186.813 83.7042 182.82L39.1416 138.257L50.7815 120.205C50.836 120.116 50.8905 120.036 50.9797 119.972C51.1035 119.883 51.2819 119.922 51.4306 119.972C54.1023 120.778 56.9708 120.633 59.5473 119.561C59.6811 119.511 59.8149 119.476 59.9189 119.571C59.971 119.618 60.0175 119.671 60.0577 119.729L104.65 184.44V184.435ZM34.8454 133.961L24.6227 123.738L44.8104 115.126C44.862 115.103 44.9176 115.091 44.9739 115.091C45.1424 115.091 45.2415 115.26 45.3307 115.413C45.5335 115.725 45.7484 116.029 45.9749 116.325L46.0393 116.404C46.0987 116.488 46.0591 116.573 45.9996 116.652L34.8503 133.961H34.8454ZM20.0985 119.214L7.1653 106.281C4.96517 104.081 3.36957 102.485 2.2596 101.112L41.5845 109.269C41.6339 109.278 41.6835 109.286 41.7332 109.293C41.976 109.333 42.2435 109.378 42.2435 109.606C42.2435 109.853 41.9512 109.967 41.7034 110.062L41.5895 110.111L20.0985 119.214ZM0 94.4624C0.0448161 93.6292 0.194659 92.8051 0.445973 92.0095C1.17935 89.7004 3.17136 87.7083 7.1653 83.7144L23.7159 67.1639C31.3362 78.2234 38.9772 89.2687 46.6389 100.3C46.7727 100.478 46.9213 100.676 46.7677 100.825C46.0442 101.623 45.3208 102.495 44.8104 103.441C44.755 103.563 44.6698 103.669 44.5626 103.749C44.4982 103.788 44.4288 103.773 44.3545 103.758H44.3446L0 94.4574V94.4624ZM28.1459 62.7339L50.39 40.4798C52.4861 41.3965 60.1023 44.6125 66.9059 47.4865C72.0593 49.6669 76.7569 51.649 78.2336 52.2931C78.3822 52.3526 78.516 52.4121 78.5804 52.5607C78.6201 52.6499 78.6002 52.7639 78.5804 52.858C78.2282 54.4644 78.2806 56.1331 78.7329 57.7142C79.1853 59.2953 80.0234 60.7393 81.172 61.9162C81.3207 62.0649 81.172 62.278 81.0432 62.4613L80.9738 62.5654L58.3779 97.5644C58.3184 97.6635 58.2639 97.7477 58.1648 97.8121C58.0459 97.8864 57.8774 97.8518 57.7386 97.8171C56.8598 97.5868 55.9563 97.4637 55.0479 97.4504C54.2353 97.4504 53.3532 97.599 52.4613 97.7626H52.4563C52.3572 97.7774 52.268 97.7972 52.1887 97.7378C52.1012 97.6662 52.0259 97.5809 51.9658 97.4851L28.1409 62.7339H28.1459ZM54.8943 35.9854L83.7042 7.17554C87.6931 3.18656 89.6901 1.1896 91.9993 0.461174C93.9438 -0.153725 96.0307 -0.153725 97.9753 0.461174C100.284 1.1896 102.281 3.18656 106.27 7.17554L112.514 13.4192L92.024 45.1526C91.9734 45.245 91.9042 45.326 91.8209 45.3905C91.697 45.4747 91.5236 45.44 91.3749 45.3905C89.7594 44.9002 88.0488 44.811 86.3911 45.1304C84.7334 45.4499 83.1784 46.1684 81.8608 47.2239C81.727 47.3627 81.5288 47.2834 81.3603 47.209C78.6845 46.0446 57.8724 37.249 54.8943 35.9854V35.9854ZM116.865 17.7699L135.784 36.689L131.225 64.9241V64.9984C131.221 65.0628 131.208 65.1262 131.185 65.1867C131.136 65.2858 131.037 65.3056 130.938 65.3354C129.963 65.6306 129.045 66.0879 128.222 66.6882C128.187 66.7134 128.154 66.7415 128.123 66.7724C128.069 66.8319 128.014 66.8864 127.925 66.8963C127.852 66.8985 127.78 66.8867 127.712 66.8616L98.8821 54.6122L98.8276 54.5874C98.6443 54.5131 98.4262 54.4239 98.4262 54.2356C98.2568 52.629 97.7321 51.0803 96.8901 49.7015C96.7514 49.4736 96.5977 49.2357 96.7167 49.0029L116.865 17.7699ZM97.3807 60.4148L124.407 71.8614C124.555 71.9308 124.719 71.9952 124.783 72.1488C124.809 72.2412 124.809 72.3389 124.783 72.4313C124.704 72.8277 124.635 73.2786 124.635 73.7345V74.4927C124.635 74.681 124.441 74.7603 124.263 74.8346L124.208 74.8544C119.927 76.6829 64.1012 100.488 64.0169 100.488C63.9327 100.488 63.8435 100.488 63.7593 100.404C63.6106 100.255 63.7593 100.047 63.8931 99.8586C63.9167 99.826 63.9398 99.7929 63.9624 99.7595L86.1719 65.3701L86.2115 65.3106C86.3404 65.1025 86.489 64.8696 86.7269 64.8696L86.9499 64.9043C87.4553 64.9736 87.9013 65.0381 88.3522 65.0381C91.7218 65.0381 94.8436 63.3979 96.7266 60.5932C96.7714 60.5183 96.8284 60.4513 96.8951 60.395C97.0289 60.2959 97.2271 60.3454 97.3807 60.4148V60.4148ZM66.4301 105.929L127.281 79.9782C127.281 79.9782 127.37 79.9782 127.454 80.0624C127.786 80.3944 128.069 80.6174 128.341 80.8255L128.475 80.9097C128.599 80.9791 128.723 81.0584 128.733 81.1872C128.733 81.2368 128.733 81.2665 128.723 81.3111L123.51 113.332L123.49 113.461C123.455 113.709 123.421 113.991 123.188 113.991C121.798 114.085 120.452 114.516 119.266 115.247C118.081 115.979 117.091 116.988 116.384 118.188L116.359 118.228C116.29 118.342 116.226 118.451 116.112 118.51C116.007 118.56 115.874 118.54 115.765 118.515L67.2379 108.506C67.1883 108.496 66.4847 105.934 66.4301 105.929V105.929Z"
    fill="currentColor"
  />
</svg>
