<svg viewBox="0 0 190 190" fill="none" xmlns="http://www.w3.org/2000/svg">
  <path
    d="M113.3 0H111.3V2V20.5996V22.5996H113.3H131.9H133.9V20.5996V2V0H131.9H113.3Z"
    fill="currentColor"
  />
  <path
    d="M53.5 0C46.3 0 39.3002 1.4002 32.7002 4.2002C26.3002 6.9002 20.6002 10.8002 15.7002 15.7002C10.8002 20.6002 6.9002 26.3002 4.2002 32.7002C1.4002 39.3002 0 46.3 0 53.5V131.9V133.9H2H20.5996H22.5996V131.9V53.2002C22.9996 45.1002 26.3996 37.5004 32.0996 31.9004C37.8996 26.2004 45.4996 22.8996 53.5996 22.5996H94.7998H96.7998V20.5996V2V0H94.7998H53.5Z"
    fill="currentColor"
  />
  <path
    d="M150.4 74.2002H148.4V76.2002V94.7998V96.7998H150.4H169H171V94.7998V76.2002V74.2002H169H150.4Z"
    fill="currentColor"
  />
  <path
    d="M150.4 37.0996H148.4V39.0996V57.7002V59.7002H150.4H169H171V57.7002V39.0996V37.0996H169H150.4Z"
    fill="currentColor"
  />
  <path
    d="M169 0H150.4H148.4V2V20.5996V22.5996H150.4H169H171V20.5996V2V0H169Z"
    fill="currentColor"
  />
  <path
    d="M150.4 111.3H148.4V113.3V131.9V133.9H150.4H169H171V131.9V113.3V111.3H169H150.4Z"
    fill="currentColor"
  />
  <path
    d="M150.4 148.4H148.4V150.4V169V171H150.4H169H171V169V150.4V148.4H169H150.4Z"
    fill="currentColor"
  />
  <path
    d="M113.3 148.4H111.3V150.4V169V171H113.3H131.9H133.9V169V150.4V148.4H131.9H113.3Z"
    fill="currentColor"
  />
  <path
    d="M76.2002 148.4H74.2002V150.4V169V171H76.2002H94.7998H96.7998V169V150.4V148.4H94.7998H76.2002Z"
    fill="currentColor"
  />
  <path
    d="M39.0996 148.4H37.0996V150.4V169V171H39.0996H57.7002H59.7002V169V150.4V148.4H57.7002H39.0996Z"
    fill="currentColor"
  />
  <path
    d="M2 148.4H0V150.4V169V171H2H20.5996H22.5996V169V150.4V148.4H20.5996H2Z"
    fill="currentColor"
  />
</svg>
