<svg viewBox="0 0 1847 457" fill="none">
  <path
    d="M134.148 456.833C202.08 456.833 253.03 432.665 273.93 391.516C273.93 411.111 275.23 431.36 278.5 447.036H390.19C384.97 424.173 382.36 392.82 382.36 351.671V251.081C382.36 155.717 326.18 110.648 201.43 110.648C92.3441 110.648 19.188 155.717 10.697 229.527H126.963C130.882 197.521 157.66 179.885 201.43 179.885C244.53 179.885 268.7 197.521 268.7 234.1V243.896L150.48 254.347C92.997 260.227 60.338 270.023 37.477 285.7C13.31 302.028 0.898987 326.851 0.898987 357.549C0.898987 418.948 51.847 456.833 134.148 456.833ZM177.26 388.902C139.37 388.902 116.512 373.88 116.512 349.712C116.512 324.892 135.45 311.827 183.14 305.949L270.66 296.805V316.4C270.66 360.163 232.78 388.902 177.26 388.902Z"
    fill="currentColor"
  />
  <path
    d="M625.77 456.833C739.43 456.833 797.56 414.377 797.56 345.793C797.56 288.966 764.9 257.613 685.87 247.162L587.23 236.059C559.15 232.138 547.39 224.953 547.39 209.277C547.39 190.336 566.33 181.844 609.44 181.844C668.88 181.844 710.03 195.561 743.35 222.342L796.25 169.434C759.67 131.55 696.32 110.648 617.94 110.648C507.55 110.648 446.15 149.838 446.15 215.809C446.15 273.289 484.03 305.295 562.41 315.745L651.25 326.196C686.52 330.769 696.97 337.302 696.97 354.283C696.97 373.88 677.37 384.331 631.65 384.331C563.72 384.331 518 366.041 487.3 332.076L427.21 381.717C467.05 431.36 534.98 456.833 625.77 456.833Z"
    fill="currentColor"
  />
  <path
    d="M889.78 194.255V332.076C889.78 413.07 935.5 454.221 1033.48 454.221C1063.53 454.221 1087.04 450.955 1109.25 444.423V359.508C1097.49 362.122 1083.12 364.734 1064.18 364.734C1023.03 364.734 1002.78 346.446 1002.78 307.908V194.255H1109.9V120.445H1002.78V0.914001L889.78 42.717V120.445H816.62V194.255H889.78Z"
    fill="currentColor"
  />
  <path
    d="M1272.13 120.445H1168.93V447.036H1281.93V324.892C1281.93 289.618 1289.77 257.613 1311.33 237.364C1328.31 221.687 1352.48 213.198 1386.44 213.198C1398.85 213.198 1408.65 214.502 1419.75 215.809V113.26C1412.57 111.954 1407.34 111.954 1398.2 111.954C1333.53 111.954 1289.77 149.185 1272.13 209.932V120.445Z"
    fill="currentColor"
  />
  <path
    d="M1643.05 456.833C1762.59 456.833 1846.85 393.475 1846.85 283.088C1846.85 173.353 1762.59 110.648 1643.05 110.648C1522.87 110.648 1438.61 173.353 1438.61 283.088C1438.61 393.475 1522.87 456.833 1643.05 456.833ZM1643.05 381.717C1588.19 381.717 1553.57 346.446 1553.57 283.088C1553.57 219.728 1588.19 185.763 1643.05 185.763C1697.27 185.763 1731.89 219.728 1731.89 283.088C1731.89 346.446 1697.27 381.717 1643.05 381.717Z"
    fill="currentColor"
  />
</svg>
